<?xml version="1.0" encoding="UTF-8"?>
<!DOCTYPE svg PUBLIC "-//W3C//DTD SVG 1.1//EN" "http://www.w3.org/Graphics/SVG/1.1/DTD/svg11.dtd">
<svg xmlns="http://www.w3.org/2000/svg" version="1.1" width="1416px" height="664px" style="shape-rendering:geometricPrecision; text-rendering:geometricPrecision; image-rendering:optimizeQuality; fill-rule:evenodd; clip-rule:evenodd" xmlns:xlink="http://www.w3.org/1999/xlink">
<g><path style="opacity:0.881" fill="#000000" d="M 159.5,178.5 C 165.833,178.5 172.167,178.5 178.5,178.5C 194.007,257.345 210.173,336.012 227,414.5C 228.956,424.444 230.456,434.444 231.5,444.5C 224.91,444.811 218.41,444.478 212,443.5C 207.02,419.109 202.187,394.776 197.5,370.5C 178.167,370.5 158.833,370.5 139.5,370.5C 136.283,395.41 131.617,419.91 125.5,444C 119.5,444.667 113.5,444.667 107.5,444C 106.884,442.6 106.551,441.1 106.5,439.5C 124.822,352.541 142.489,265.541 159.5,178.5 Z M 167.5,227.5 C 169.221,232.065 170.888,236.899 172.5,242C 178.88,274.783 184.88,307.616 190.5,340.5C 175.833,340.5 161.167,340.5 146.5,340.5C 154.111,302.964 161.111,265.298 167.5,227.5 Z"/></g>
<g><path style="opacity:0.901" fill="#000000" d="M 250.5,178.5 C 256.5,178.5 262.5,178.5 268.5,178.5C 268.5,256.833 268.5,335.167 268.5,413.5C 287.167,413.5 305.833,413.5 324.5,413.5C 324.5,423.833 324.5,434.167 324.5,444.5C 299.925,444.828 275.425,444.494 251,443.5C 250.5,355.167 250.333,266.834 250.5,178.5 Z"/></g>
<g><path style="opacity:0.906" fill="#000000" d="M 344.5,178.5 C 350.5,178.5 356.5,178.5 362.5,178.5C 362.5,256.833 362.5,335.167 362.5,413.5C 381.167,413.5 399.833,413.5 418.5,413.5C 418.819,423.749 418.486,433.916 417.5,444C 393.169,444.5 368.836,444.667 344.5,444.5C 344.5,355.833 344.5,267.167 344.5,178.5 Z"/></g>
<g><path style="opacity:0.881" fill="#000000" d="M 480.5,178.5 C 487.167,178.5 493.833,178.5 500.5,178.5C 502.007,189.873 503.84,201.207 506,212.5C 522.1,288.394 537.933,364.394 553.5,440.5C 553.43,441.772 553.097,442.938 552.5,444C 546.115,444.793 539.782,444.626 533.5,443.5C 528.042,419.315 523.042,394.982 518.5,370.5C 499.5,370.5 480.5,370.5 461.5,370.5C 457.208,394.26 452.708,417.926 448,441.5C 447.626,442.416 447.126,443.25 446.5,444C 440.5,444.667 434.5,444.667 428.5,444C 427.884,442.6 427.551,441.1 427.5,439.5C 445.808,352.709 463.475,265.709 480.5,178.5 Z M 489.5,225.5 C 490.765,226.514 491.431,228.014 491.5,230C 498.169,266.498 505.169,302.998 512.5,339.5C 497.848,340.499 483.182,340.833 468.5,340.5C 475.101,302.157 482.101,263.823 489.5,225.5 Z"/></g>
<g><path style="opacity:0.873" fill="#000000" d="M 571.5,178.5 C 577.5,178.5 583.5,178.5 589.5,178.5C 589.5,216.5 589.5,254.5 589.5,292.5C 612.833,292.5 636.167,292.5 659.5,292.5C 659.5,254.5 659.5,216.5 659.5,178.5C 665.833,178.5 672.167,178.5 678.5,178.5C 678.667,266.834 678.5,355.167 678,443.5C 672.197,444.816 666.364,444.816 660.5,443.5C 659.5,404.172 659.167,364.839 659.5,325.5C 636.167,325.5 612.833,325.5 589.5,325.5C 589.5,365.167 589.5,404.833 589.5,444.5C 583.771,444.788 578.104,444.454 572.5,443.5C 571.5,355.169 571.167,266.836 571.5,178.5 Z"/></g>
<g><path style="opacity:0.891" fill="#000000" d="M 767.5,178.5 C 783.514,178.167 799.514,178.501 815.5,179.5C 820.66,180.834 825.66,182.5 830.5,184.5C 830.5,185.5 830.5,186.5 830.5,187.5C 831.675,187.281 832.675,187.614 833.5,188.5C 836.342,191.542 839.176,194.542 842,197.5C 851.479,216.646 855.646,236.979 854.5,258.5C 855.68,281.105 851.18,302.439 841,322.5C 839.362,325.304 837.529,327.971 835.5,330.5C 834.272,332.321 832.606,333.321 830.5,333.5C 829.828,336.35 828.161,338.517 825.5,340C 812.726,345.361 799.392,347.528 785.5,346.5C 785.5,379.167 785.5,411.833 785.5,444.5C 779.575,444.808 773.741,444.475 768,443.5C 767.5,355.167 767.333,266.834 767.5,178.5 Z M 785.5,210.5 C 796.592,210.137 807.592,210.804 818.5,212.5C 818.281,213.675 818.614,214.675 819.5,215.5C 822.473,217.472 825.139,219.805 827.5,222.5C 833.857,234.335 836.524,247.001 835.5,260.5C 835.549,268.566 834.882,276.566 833.5,284.5C 831.029,290.578 828.362,296.578 825.5,302.5C 822.85,304.483 820.517,306.817 818.5,309.5C 815.028,311.35 811.361,312.683 807.5,313.5C 800.197,314.497 792.863,314.831 785.5,314.5C 785.5,279.833 785.5,245.167 785.5,210.5 Z"/></g>
<g><path style="opacity:0.881" fill="#000000" d="M 903.5,178.5 C 909.96,177.903 916.126,178.57 922,180.5C 938.679,264.884 956.012,349.217 974,433.5C 974.392,436.188 974.892,438.855 975.5,441.5C 975.167,442.167 974.833,442.833 974.5,443.5C 968.167,444.833 961.833,444.833 955.5,443.5C 949.527,419.314 944.527,394.981 940.5,370.5C 921.488,370.167 902.488,370.5 883.5,371.5C 878.714,395.496 873.881,419.496 869,443.5C 862.916,444.642 856.749,444.809 850.5,444C 849.941,443.275 849.608,442.442 849.5,441.5C 866.952,353.635 884.952,265.969 903.5,178.5 Z M 911.5,223.5 C 919.029,262.479 926.696,301.479 934.5,340.5C 919.485,340.833 904.485,340.499 889.5,339.5C 896.992,300.716 904.325,262.049 911.5,223.5 Z"/></g>
<g><path style="opacity:0.863" fill="#000000" d="M 993.5,178.5 C 1001.2,178.169 1008.86,178.503 1016.5,179.5C 1041.62,251.002 1065.95,322.669 1089.5,394.5C 1089.4,323.187 1089.57,251.854 1090,180.5C 1095.87,178.57 1102.04,177.903 1108.5,178.5C 1108.83,266.836 1108.5,355.169 1107.5,443.5C 1100.55,444.63 1093.55,444.797 1086.5,444C 1085.87,443.25 1085.37,442.416 1085,441.5C 1060.38,371.415 1036.38,301.082 1013,230.5C 1012.67,301.5 1012.33,372.5 1012,443.5C 1006,444.833 1000,444.833 994,443.5C 993.5,355.167 993.333,266.834 993.5,178.5 Z"/></g>
<g><path style="opacity:0.869" fill="#000000" d="M 1142.5,178.5 C 1166.83,178.5 1191.17,178.5 1215.5,178.5C 1215.5,189.167 1215.5,199.833 1215.5,210.5C 1197.5,210.5 1179.5,210.5 1161.5,210.5C 1161.5,237.833 1161.5,265.167 1161.5,292.5C 1177.83,292.5 1194.17,292.5 1210.5,292.5C 1211.43,303.462 1211.77,314.462 1211.5,325.5C 1194.83,325.5 1178.17,325.5 1161.5,325.5C 1161.5,354.833 1161.5,384.167 1161.5,413.5C 1180.5,413.5 1199.5,413.5 1218.5,413.5C 1219.13,423.926 1218.46,434.093 1216.5,444C 1191.93,444.827 1167.43,444.661 1143,443.5C 1142.5,355.167 1142.33,266.834 1142.5,178.5 Z"/></g>
<g><path style="opacity:0.87" fill="#000000" d="M 1242.5,178.5 C 1248.83,178.5 1255.17,178.5 1261.5,178.5C 1261.5,256.833 1261.5,335.167 1261.5,413.5C 1280.17,413.5 1298.83,413.5 1317.5,413.5C 1317.82,423.749 1317.49,433.916 1316.5,444C 1292.12,444.823 1267.79,444.657 1243.5,443.5C 1242.5,355.169 1242.17,266.836 1242.5,178.5 Z"/></g>
</svg>
